<svg width="37" height="38" viewBox="0 0 37 38" fill="none" xmlns="http://www.w3.org/2000/svg">
<rect x="0.5" y="0.817871" width="35.7784" height="35.7784" stroke="#D93F3F"/>
<path fill-rule="evenodd" clip-rule="evenodd" d="M26.2534 11.8595H22.5376L22.1732 10.4015C22.0426 9.87915 21.5732 9.5127 21.0348 9.5127H15.8266C15.2881 9.5127 14.8188 9.87915 14.6882 10.4015L14.3237 11.8595H10.6079C10.3919 11.8595 10.2168 12.0346 10.2168 12.2507C10.2168 12.4667 10.3919 12.6418 10.6079 12.6418H11.8205L12.5468 27.1731C12.5783 27.7973 13.0937 28.2873 13.7187 28.2873H23.1824C23.8077 28.2872 24.3231 27.7968 24.3542 27.1723L25.0806 12.6418H26.2534C26.4694 12.6418 26.6446 12.4667 26.6446 12.2507C26.6446 12.0346 26.4694 11.8595 26.2534 11.8595ZM16.4748 23.2025C16.4748 23.4185 16.2996 23.5936 16.0836 23.5936C15.8676 23.5936 15.6925 23.4185 15.6925 23.2025V16.9443C15.6925 16.7283 15.8676 16.5532 16.0836 16.5532C16.2996 16.5532 16.4748 16.7283 16.4748 16.9443V23.2025ZM18.4304 24.3759C18.6464 24.3759 18.8215 24.2008 18.8215 23.9848V16.162C18.8215 15.946 18.6464 15.7709 18.4304 15.7709C18.2143 15.7709 18.0392 15.946 18.0392 16.162V23.9848C18.0392 24.2008 18.2143 24.3759 18.4304 24.3759ZM21.169 23.2025C21.169 23.4185 20.9939 23.5936 20.7779 23.5936C20.5619 23.5936 20.3868 23.4185 20.3868 23.2025V16.9443C20.3868 16.7283 20.5619 16.5532 20.7779 16.5532C20.9939 16.5532 21.169 16.7283 21.169 16.9443V23.2025ZM15.4469 10.5914L15.1299 11.8595H21.731L21.414 10.5914C21.3707 10.4171 21.2141 10.2948 21.0345 10.295H15.8264C15.6468 10.2948 15.4902 10.4171 15.4469 10.5914Z" fill="#D93F3F"/>
</svg>
