<svg width="552" height="178" viewBox="0 0 552 178" fill="none" xmlns="http://www.w3.org/2000/svg">
<rect y="0.976074" width="551.675" height="176.533" fill="#333333"/>
<path d="M199.872 77.6401V92.8561H202.056V99.2881H199.992V94.7761H188.208V99.2881H186.144V92.8561H187.464C188.04 91.8641 188.584 90.7521 189.096 89.5201C189.624 88.2881 190.088 87.0001 190.488 85.6561C190.888 84.2961 191.216 82.9361 191.472 81.5761C191.728 80.2161 191.888 78.9041 191.952 77.6401H199.872ZM193.848 79.5841C193.784 80.5121 193.624 81.5601 193.368 82.7281C193.128 83.8961 192.816 85.0961 192.432 86.3281C192.064 87.5441 191.648 88.7201 191.184 89.8561C190.736 90.9921 190.256 91.9921 189.744 92.8561H197.736V79.5841H193.848ZM216.298 88.3201C216.298 90.4481 215.754 92.0961 214.666 93.2641C213.594 94.4321 212.138 95.0161 210.298 95.0161C209.162 95.0161 208.146 94.7601 207.25 94.2481C206.37 93.7201 205.674 92.9601 205.162 91.9681C204.65 90.9601 204.394 89.7441 204.394 88.3201C204.394 86.1921 204.93 84.5521 206.002 83.4001C207.074 82.2481 208.53 81.6721 210.37 81.6721C211.538 81.6721 212.562 81.9361 213.442 82.4641C214.338 82.9761 215.034 83.7281 215.53 84.7201C216.042 85.6961 216.298 86.8961 216.298 88.3201ZM206.578 88.3201C206.578 89.8401 206.874 91.0481 207.466 91.9441C208.074 92.8241 209.034 93.2641 210.346 93.2641C211.642 93.2641 212.594 92.8241 213.202 91.9441C213.81 91.0481 214.114 89.8401 214.114 88.3201C214.114 86.8001 213.81 85.6081 213.202 84.7441C212.594 83.8801 211.634 83.4481 210.322 83.4481C209.01 83.4481 208.058 83.8801 207.466 84.7441C206.874 85.6081 206.578 86.8001 206.578 88.3201ZM219.453 87.0481C219.453 84.2321 219.877 82.0401 220.725 80.4721C221.573 78.8881 222.941 77.8961 224.829 77.4961C225.869 77.2721 226.885 77.0721 227.877 76.8961C228.869 76.7201 229.797 76.5601 230.661 76.4161L231.021 78.2641C230.461 78.3441 229.829 78.4481 229.125 78.5761C228.421 78.6881 227.725 78.8081 227.037 78.9361C226.349 79.0481 225.757 79.1601 225.261 79.2721C224.221 79.4961 223.397 80.0401 222.789 80.9041C222.181 81.7521 221.837 83.0801 221.757 84.8881H221.901C222.125 84.5841 222.429 84.2721 222.813 83.9521C223.213 83.6321 223.685 83.3601 224.229 83.1361C224.789 82.9121 225.421 82.8001 226.125 82.8001C227.789 82.8001 229.045 83.3361 229.893 84.4081C230.741 85.4801 231.165 86.8721 231.165 88.5841C231.165 90.0081 230.917 91.2001 230.421 92.1601C229.925 93.1201 229.237 93.8401 228.357 94.3201C227.477 94.7841 226.453 95.0161 225.285 95.0161C223.509 95.0161 222.093 94.3361 221.037 92.9761C219.981 91.6161 219.453 89.6401 219.453 87.0481ZM225.453 93.2641C226.493 93.2641 227.333 92.9281 227.973 92.2561C228.613 91.5841 228.933 90.4321 228.933 88.8001C228.933 87.4881 228.685 86.4561 228.189 85.7041C227.709 84.9361 226.909 84.5521 225.789 84.5521C225.085 84.5521 224.445 84.7121 223.869 85.0321C223.293 85.3361 222.813 85.6881 222.429 86.0881C222.045 86.4881 221.773 86.8241 221.613 87.0961C221.613 87.8801 221.669 88.6401 221.781 89.3761C221.893 90.1121 222.085 90.7761 222.357 91.3681C222.645 91.9441 223.037 92.4081 223.533 92.7601C224.045 93.0961 224.685 93.2641 225.453 93.2641ZM239.844 81.6961C241.412 81.6961 242.572 82.0401 243.324 82.7281C244.076 83.4161 244.452 84.5121 244.452 86.0161V94.7761H242.916L242.508 92.9521H242.412C241.852 93.6561 241.26 94.1761 240.636 94.5121C240.028 94.8481 239.18 95.0161 238.092 95.0161C236.924 95.0161 235.956 94.7121 235.188 94.1041C234.42 93.4801 234.036 92.5121 234.036 91.2001C234.036 89.9201 234.54 88.9361 235.548 88.2481C236.556 87.5441 238.108 87.1601 240.204 87.0961L242.388 87.0241V86.2561C242.388 85.1841 242.156 84.4401 241.692 84.0241C241.228 83.6081 240.572 83.4001 239.724 83.4001C239.052 83.4001 238.412 83.5041 237.804 83.7121C237.196 83.9041 236.628 84.1281 236.1 84.3841L235.452 82.8001C236.012 82.4961 236.676 82.2401 237.444 82.0321C238.212 81.8081 239.012 81.6961 239.844 81.6961ZM240.468 88.5601C238.868 88.6241 237.756 88.8801 237.132 89.3281C236.524 89.7761 236.22 90.4081 236.22 91.2241C236.22 91.9441 236.436 92.4721 236.868 92.8081C237.316 93.1441 237.884 93.3121 238.572 93.3121C239.66 93.3121 240.564 93.0161 241.284 92.4241C242.004 91.8161 242.364 90.8881 242.364 89.6401V88.4881L240.468 88.5601ZM259.249 85.1521C259.249 85.9521 259.009 86.5761 258.529 87.0241C258.049 87.4721 257.433 87.7761 256.681 87.9361V88.0321C257.481 88.1441 258.177 88.4321 258.769 88.8961C259.361 89.3441 259.657 90.0481 259.657 91.0081C259.657 92.0961 259.249 93.0001 258.433 93.7201C257.633 94.4241 256.305 94.7761 254.449 94.7761H248.905V81.9121H254.425C255.337 81.9121 256.153 82.0161 256.873 82.2241C257.609 82.4161 258.185 82.7521 258.601 83.2321C259.033 83.6961 259.249 84.3361 259.249 85.1521ZM257.113 85.4161C257.113 84.8081 256.889 84.3681 256.441 84.0961C256.009 83.8081 255.297 83.6641 254.305 83.6641H251.017V87.1921H253.921C256.049 87.1921 257.113 86.6001 257.113 85.4161ZM257.473 91.0081C257.473 90.2721 257.193 89.7441 256.633 89.4241C256.073 89.1041 255.249 88.9441 254.161 88.9441H251.017V93.0721H254.209C255.265 93.0721 256.073 92.9201 256.633 92.6161C257.193 92.2961 257.473 91.7601 257.473 91.0081ZM269.141 87.1921C272.485 87.1921 274.157 88.4081 274.157 90.8401C274.157 92.0401 273.749 93.0001 272.933 93.7201C272.117 94.4241 270.821 94.7761 269.045 94.7761H263.213V81.9121H265.325V87.1921H269.141ZM272.045 90.9601C272.045 90.1761 271.765 89.6481 271.205 89.3761C270.661 89.0881 269.893 88.9441 268.901 88.9441H265.325V93.0721H268.949C269.845 93.0721 270.581 92.9121 271.157 92.5921C271.749 92.2721 272.045 91.7281 272.045 90.9601ZM285.628 83.6881H281.428V94.7761H279.34V83.6881H275.188V81.9121H285.628V83.6881ZM293.376 81.6721C294.48 81.6721 295.424 81.9121 296.208 82.3921C297.008 82.8721 297.616 83.5521 298.032 84.4321C298.464 85.2961 298.68 86.3121 298.68 87.4801V88.7521H289.872C289.904 90.2081 290.272 91.3201 290.976 92.0881C291.696 92.8401 292.696 93.2161 293.976 93.2161C294.792 93.2161 295.512 93.1441 296.136 93.0001C296.776 92.8401 297.432 92.6161 298.104 92.3281V94.1761C297.448 94.4641 296.8 94.6721 296.16 94.8001C295.52 94.9441 294.76 95.0161 293.88 95.0161C292.664 95.0161 291.584 94.7681 290.64 94.2721C289.712 93.7761 288.984 93.0401 288.456 92.0641C287.944 91.0721 287.688 89.8641 287.688 88.4401C287.688 87.0321 287.92 85.8241 288.384 84.8161C288.864 83.8081 289.528 83.0321 290.376 82.4881C291.24 81.9441 292.24 81.6721 293.376 81.6721ZM293.352 83.4001C292.344 83.4001 291.544 83.7281 290.952 84.3841C290.376 85.0241 290.032 85.9201 289.92 87.0721H296.472C296.456 85.9841 296.2 85.1041 295.704 84.4321C295.208 83.7441 294.424 83.4001 293.352 83.4001ZM316.782 81.7201C318.062 81.8321 319.174 82.1681 320.118 82.7281C321.078 83.2881 321.822 84.0401 322.35 84.9841C322.878 85.9281 323.142 87.0481 323.142 88.3441C323.142 90.2801 322.574 91.8241 321.438 92.9761C320.318 94.1281 318.766 94.7921 316.782 94.9681V100.536H314.718V94.9681C313.454 94.8561 312.342 94.5281 311.382 93.9841C310.422 93.4241 309.678 92.6721 309.15 91.7281C308.622 90.7681 308.358 89.6401 308.358 88.3441C308.358 86.3921 308.918 84.8401 310.038 83.6881C311.174 82.5361 312.758 81.8801 314.79 81.7201V76.5361H316.782V81.7201ZM314.79 83.4721C313.318 83.6161 312.246 84.1041 311.574 84.9361C310.902 85.7521 310.566 86.8881 310.566 88.3441C310.566 89.8001 310.902 90.9441 311.574 91.7761C312.262 92.6081 313.334 93.0961 314.79 93.2401V83.4721ZM316.782 93.2401C318.222 93.0801 319.278 92.5841 319.95 91.7521C320.622 90.9201 320.958 89.7841 320.958 88.3441C320.958 86.9041 320.614 85.7761 319.926 84.9601C319.254 84.1441 318.206 83.6561 316.782 83.4961V93.2401ZM338.157 88.3201C338.157 90.4481 337.613 92.0961 336.525 93.2641C335.453 94.4321 333.997 95.0161 332.157 95.0161C331.021 95.0161 330.005 94.7601 329.109 94.2481C328.229 93.7201 327.533 92.9601 327.021 91.9681C326.509 90.9601 326.253 89.7441 326.253 88.3201C326.253 86.1921 326.789 84.5521 327.861 83.4001C328.933 82.2481 330.389 81.6721 332.229 81.6721C333.397 81.6721 334.421 81.9361 335.301 82.4641C336.197 82.9761 336.893 83.7281 337.389 84.7201C337.901 85.6961 338.157 86.8961 338.157 88.3201ZM328.437 88.3201C328.437 89.8401 328.733 91.0481 329.325 91.9441C329.933 92.8241 330.893 93.2641 332.205 93.2641C333.501 93.2641 334.453 92.8241 335.061 91.9441C335.669 91.0481 335.973 89.8401 335.973 88.3201C335.973 86.8001 335.669 85.6081 335.061 84.7441C334.453 83.8801 333.493 83.4481 332.181 83.4481C330.869 83.4481 329.917 83.8801 329.325 84.7441C328.733 85.6081 328.437 86.8001 328.437 88.3201ZM350.63 83.6881H346.43V94.7761H344.342V83.6881H340.19V81.9121H350.63V83.6881ZM364.593 88.3201C364.593 90.4481 364.049 92.0961 362.961 93.2641C361.889 94.4321 360.433 95.0161 358.593 95.0161C357.457 95.0161 356.441 94.7601 355.545 94.2481C354.665 93.7201 353.969 92.9601 353.457 91.9681C352.945 90.9601 352.689 89.7441 352.689 88.3201C352.689 86.1921 353.225 84.5521 354.297 83.4001C355.369 82.2481 356.825 81.6721 358.665 81.6721C359.833 81.6721 360.857 81.9361 361.737 82.4641C362.633 82.9761 363.329 83.7281 363.825 84.7201C364.337 85.6961 364.593 86.8961 364.593 88.3201ZM354.873 88.3201C354.873 89.8401 355.169 91.0481 355.761 91.9441C356.369 92.8241 357.329 93.2641 358.641 93.2641C359.937 93.2641 360.889 92.8241 361.497 91.9441C362.105 91.0481 362.409 89.8401 362.409 88.3201C362.409 86.8001 362.105 85.6081 361.497 84.7441C360.889 83.8801 359.929 83.4481 358.617 83.4481C357.305 83.4481 356.353 83.8801 355.761 84.7441C355.169 85.6081 354.873 86.8001 354.873 88.3201Z" fill="white"/>
</svg>
